<?xml version="1.0" standalone="no"?>
<!DOCTYPE svg PUBLIC "-//W3C//DTD SVG 20010904//EN"
 "http://www.w3.org/TR/2001/REC-SVG-20010904/DTD/svg10.dtd">
<svg version="1.0" xmlns="http://www.w3.org/2000/svg"
 width="256.000000pt" height="256.000000pt" viewBox="0 0 256.000000 256.000000"
 preserveAspectRatio="xMidYMid meet">

<g transform="translate(0.000000,256.000000) scale(0.100000,-0.100000)"
fill="#000000" stroke="none">
<path d="M1465 2434 c-250 -25 -459 -93 -554 -180 -74 -66 -71 -44 -71 -598
l0 -495 -309 -3 c-295 -3 -311 -4 -337 -24 -67 -49 -69 -58 -69 -254 0 -170 1
-180 23 -209 l23 -31 -23 -31 c-22 -29 -23 -39 -23 -209 0 -196 2 -205 69
-254 27 -21 36 -21 726 -21 690 0 699 0 726 21 67 49 69 58 69 254 0 170 -1
180 -23 209 l-23 31 22 29 c13 17 24 50 26 78 l5 49 142 17 c181 22 279 48
392 102 101 49 169 113 179 169 3 17 4 154 3 305 -3 248 -5 275 -20 285 -25
15 -47 -1 -63 -47 -19 -55 -40 -74 -130 -117 -81 -39 -178 -67 -315 -91 -99
-18 -440 -18 -540 -1 -210 37 -376 102 -426 167 -23 31 -24 37 -24 208 l0 176
73 -39 c166 -89 346 -124 642 -124 215 -1 289 7 445 45 81 20 223 80 265 112
15 11 23 12 37 3 13 -8 23 -8 36 0 13 9 18 28 20 85 4 104 -3 130 -49 183 -70
79 -226 144 -434 181 -87 16 -403 28 -490 19z m490 -99 c231 -42 405 -134 405
-215 0 -82 -171 -172 -410 -216 -134 -25 -486 -25 -620 0 -238 44 -410 133
-410 213 0 105 211 196 550 237 75 9 398 -4 485 -19z m-760 -963 c162 -39 235
-47 445 -47 285 0 462 33 628 116 l92 46 0 -195 c0 -191 0 -196 -24 -227 -55
-72 -244 -141 -464 -170 -165 -22 -149 -30 -154 74 -3 96 -15 123 -72 165 -26
20 -42 21 -377 24 l-349 3 0 163 0 163 93 -46 c51 -26 132 -56 182 -69z m420
-317 c24 -23 25 -28 25 -175 0 -147 -1 -152 -25 -175 l-24 -25 -671 0 -671 0
-24 25 c-24 23 -25 28 -25 175 0 147 1 152 25 175 l24 25 671 0 671 0 24 -25z
m0 -480 c24 -23 25 -28 25 -175 0 -147 -1 -152 -25 -175 l-24 -25 -671 0 -671
0 -24 25 c-24 23 -25 28 -25 175 0 147 1 152 25 175 l24 25 671 0 671 0 24
-25z"/>
<path d="M345 935 c-16 -15 -25 -36 -25 -55 0 -19 9 -40 25 -55 49 -50 135
-15 135 55 0 41 -39 80 -80 80 -19 0 -40 -9 -55 -25z"/>
<path d="M585 935 c-16 -15 -25 -36 -25 -55 0 -19 9 -40 25 -55 15 -16 36 -25
55 -25 19 0 40 9 55 25 16 15 25 36 25 55 0 19 -9 40 -25 55 -15 16 -36 25
-55 25 -19 0 -40 -9 -55 -25z"/>
<path d="M345 455 c-16 -15 -25 -36 -25 -55 0 -19 9 -40 25 -55 15 -16 36 -25
55 -25 70 0 105 86 55 135 -15 16 -36 25 -55 25 -19 0 -40 -9 -55 -25z"/>
<path d="M585 455 c-16 -15 -25 -36 -25 -55 0 -19 9 -40 25 -55 49 -50 135
-15 135 55 0 41 -39 80 -80 80 -19 0 -40 -9 -55 -25z"/>
<path d="M2371 1866 c-17 -21 -10 -87 12 -100 27 -17 51 5 55 48 4 41 -11 66
-38 66 -10 0 -23 -6 -29 -14z"/>
</g>
</svg>
