<?xml version="1.0" standalone="no"?>
<!DOCTYPE svg PUBLIC "-//W3C//DTD SVG 20010904//EN"
 "http://www.w3.org/TR/2001/REC-SVG-20010904/DTD/svg10.dtd">
<svg version="1.0" xmlns="http://www.w3.org/2000/svg"
 width="256.000000pt" height="256.000000pt" viewBox="0 0 256.000000 256.000000"
 preserveAspectRatio="xMidYMid meet">

<g transform="translate(0.000000,256.000000) scale(0.100000,-0.100000)"
fill="#000000" stroke="none">
<path d="M515 2391 c-46 -20 -69 -59 -73 -125 l-4 -64 -73 -4 c-86 -6 -133
-30 -173 -91 l-27 -41 -3 -676 -3 -676 24 -44 c13 -25 43 -58 66 -75 l43 -30
354 -3 354 -3 0 -159 0 -159 -91 -3 c-75 -2 -94 -6 -103 -20 -8 -13 -8 -23 0
-35 10 -17 43 -18 454 -18 411 0 444 1 454 18 8 12 8 22 0 35 -9 13 -28 18
-83 20 l-71 3 0 159 0 159 353 3 c351 3 352 3 390 27 21 13 50 42 65 64 l27
41 0 686 0 686 -27 41 c-40 61 -87 85 -173 91 l-73 4 -4 65 c-3 56 -8 68 -36
96 l-32 32 -758 2 c-416 1 -766 -2 -777 -6z m1513 -83 c8 -8 12 -58 12 -160
l0 -148 -760 0 -760 0 0 148 c0 102 4 152 12 160 17 17 1479 17 1496 0z
m-1586 -653 l3 -465 33 -32 32 -33 770 0 770 0 32 33 33 32 0 217 c0 195 -2
217 -17 227 -13 8 -23 8 -35 0 -16 -10 -18 -33 -21 -209 -1 -126 -6 -203 -13
-212 -16 -18 -1479 -19 -1497 -1 -9 9 -12 103 -12 360 l0 348 760 0 760 0 0
-83 c0 -51 5 -88 12 -95 17 -17 55 -15 62 4 3 9 6 97 6 196 l0 180 65 -4 c58
-3 69 -8 98 -36 l32 -32 3 -505 3 -505 -1041 0 -1041 0 3 504 3 504 25 27 c33
36 54 44 117 44 l52 1 3 -465z m1876 -820 l-3 -125 -33 -32 -32 -33 -970 0
-970 0 -32 33 -33 32 -3 125 -4 125 1042 0 1042 0 -4 -125z m-838 -435 l0
-160 -200 0 -200 0 0 160 0 160 200 0 200 0 0 -160z"/>
<path d="M1345 2215 c-50 -49 -15 -135 55 -135 19 0 40 9 55 25 16 15 25 36
25 55 0 19 -9 40 -25 55 -15 16 -36 25 -55 25 -19 0 -40 -9 -55 -25z"/>
<path d="M1585 2215 c-50 -49 -15 -135 55 -135 19 0 40 9 55 25 16 15 25 36
25 55 0 19 -9 40 -25 55 -15 16 -36 25 -55 25 -19 0 -40 -9 -55 -25z"/>
<path d="M1825 2215 c-50 -49 -15 -135 55 -135 19 0 40 9 55 25 16 15 25 36
25 55 0 19 -9 40 -25 55 -15 16 -36 25 -55 25 -19 0 -40 -9 -55 -25z"/>
<path d="M612 2188 c-16 -16 -15 -43 2 -57 9 -8 89 -11 271 -9 233 3 259 5
269 21 8 12 8 22 0 35 -10 15 -36 17 -270 20 -194 2 -263 -1 -272 -10z"/>
<path d="M652 1828 c-17 -17 -17 -519 0 -536 17 -17 479 -17 496 0 17 17 17
519 0 536 -17 17 -479 17 -496 0z m428 -268 l0 -200 -180 0 -180 0 0 200 0
200 180 0 180 0 0 -200z"/>
<path d="M1372 1828 c-8 -8 -12 -47 -12 -108 0 -61 4 -100 12 -108 17 -17 559
-17 576 0 16 16 16 200 0 216 -17 17 -559 17 -576 0z m508 -108 l0 -40 -220 0
-220 0 0 40 0 40 220 0 220 0 0 -40z"/>
<path d="M1372 1508 c-8 -8 -12 -47 -12 -108 0 -61 4 -100 12 -108 17 -17 559
-17 576 0 16 16 16 200 0 216 -17 17 -559 17 -576 0z m508 -108 l0 -40 -220 0
-220 0 0 40 0 40 220 0 220 0 0 -40z"/>
<path d="M1225 855 c-16 -15 -25 -36 -25 -55 0 -19 9 -40 25 -55 15 -16 36
-25 55 -25 19 0 40 9 55 25 16 15 25 36 25 55 0 19 -9 40 -25 55 -15 16 -36
25 -55 25 -19 0 -40 -9 -55 -25z"/>
</g>
</svg>
