<?xml version="1.0" standalone="no"?>
<!DOCTYPE svg PUBLIC "-//W3C//DTD SVG 20010904//EN"
 "http://www.w3.org/TR/2001/REC-SVG-20010904/DTD/svg10.dtd">
<svg version="1.0" xmlns="http://www.w3.org/2000/svg"
 width="256.000000pt" height="256.000000pt" viewBox="0 0 256.000000 256.000000"
 preserveAspectRatio="xMidYMid meet">

<g transform="translate(0.000000,256.000000) scale(0.100000,-0.100000)"
fill="#000000" stroke="none">
<path d="M1665 2333 c-50 -7 -344 -84 -439 -114 -48 -16 -100 -38 -116 -49
-41 -29 -64 -96 -105 -300 -20 -102 -38 -193 -41 -202 -5 -16 -24 -18 -177
-20 l-172 -3 -3 -318 -2 -318 33 -34 c32 -32 38 -35 96 -35 44 0 61 -4 61 -13
0 -7 -20 -114 -45 -237 -25 -123 -45 -238 -45 -255 0 -132 245 -215 641 -215
128 0 196 18 248 66 53 47 75 104 110 289 65 339 241 1469 241 1547 0 36 -7
54 -36 92 -20 26 -39 60 -43 74 -4 15 -18 33 -32 39 -23 12 -109 15 -174 6z
m131 -49 c22 -6 24 -30 8 -131 -6 -38 9 -33 -194 -63 -80 -12 -230 -39 -333
-62 -104 -22 -190 -38 -192 -36 -7 7 33 109 50 128 21 23 114 54 331 111 191
50 286 65 330 53z m-7 -286 c-28 -219 -45 -332 -84 -563 -44 -260 -163 -886
-170 -893 -4 -4 -738 48 -742 52 -3 3 48 262 62 318 l7 28 252 2 251 3 8 308
8 308 -26 44 -26 45 -154 0 c-118 0 -155 3 -155 13 0 14 49 260 53 263 1 1 72
18 158 38 179 42 458 91 535 95 l31 1 -8 -62z m-501 -674 l-3 -275 -310 0
-310 1 -3 275 -2 275 315 0 315 0 -2 -276z m-95 -815 l328 -23 -6 -35 c-17
-88 -60 -134 -142 -147 -71 -11 -477 40 -546 70 -52 22 -70 49 -63 93 14 75
14 76 59 69 23 -3 190 -15 370 -27z"/>
<path d="M962 1477 c-5 -7 -15 -48 -22 -92 -7 -44 -20 -106 -30 -139 -20 -64
-18 -86 10 -86 43 0 105 308 66 323 -8 3 -19 0 -24 -6z"/>
<path d="M756 1387 c-32 -29 -57 -58 -55 -64 9 -24 120 -115 134 -109 25 9 17
36 -23 77 l-38 38 39 39 c26 26 38 46 34 56 -10 26 -29 18 -91 -37z"/>
<path d="M1077 1433 c-14 -14 -6 -40 24 -76 l32 -38 -44 -45 c-40 -41 -42 -45
-26 -61 15 -16 20 -13 74 34 32 28 60 58 61 68 3 11 -17 38 -49 71 -54 55 -61
59 -72 47z"/>
<path d="M1056 451 c-20 -37 -20 -75 -2 -90 31 -26 71 27 64 85 -5 42 -42 45
-62 5z"/>
</g>
</svg>
