<?xml version="1.0" standalone="no"?>
<!DOCTYPE svg PUBLIC "-//W3C//DTD SVG 20010904//EN"
 "http://www.w3.org/TR/2001/REC-SVG-20010904/DTD/svg10.dtd">
<svg version="1.0" xmlns="http://www.w3.org/2000/svg"
 width="256.000000pt" height="256.000000pt" viewBox="0 0 256.000000 256.000000"
 preserveAspectRatio="xMidYMid meet">

<g transform="translate(0.000000,256.000000) scale(0.100000,-0.100000)"
fill="#000000" stroke="none">
<path d="M320 2387 c-49 -16 -133 -102 -148 -153 -17 -59 -17 -1849 0 -1908
16 -55 99 -138 154 -154 59 -17 1049 -17 1108 0 55 16 138 99 154 154 7 23 12
85 12 138 l0 96 375 0 376 0 24 25 25 24 0 671 0 671 -25 24 -24 25 -376 0
-375 0 0 96 c0 53 -5 115 -12 138 -16 55 -99 138 -154 154 -55 16 -1062 15
-1114 -1z m408 -191 c21 -79 102 -128 187 -112 51 10 103 60 117 112 l12 44
174 0 c170 0 173 0 197 -25 23 -22 25 -32 25 -120 l0 -95 -375 0 -376 0 -24
-25 -25 -24 0 -671 0 -671 25 -24 24 -25 376 0 375 0 0 -95 c0 -88 -2 -98 -25
-120 l-24 -25 -511 0 -511 0 -24 25 -25 24 0 911 0 911 25 24 c24 25 27 25
197 25 l174 0 12 -44z m1512 -516 l0 -160 -720 0 -720 0 0 160 0 160 720 0
720 0 0 -160z m0 -640 l0 -320 -720 0 -720 0 0 320 0 320 720 0 720 0 0 -320z"/>
<path d="M905 1735 c-16 -15 -25 -36 -25 -55 0 -19 9 -40 25 -55 15 -16 36
-25 55 -25 19 0 40 9 55 25 16 15 25 36 25 55 0 19 -9 40 -25 55 -15 16 -36
25 -55 25 -19 0 -40 -9 -55 -25z"/>
<path d="M1145 1735 c-16 -15 -25 -36 -25 -55 0 -19 9 -40 25 -55 15 -16 36
-25 55 -25 19 0 40 9 55 25 16 15 25 36 25 55 0 19 -9 40 -25 55 -15 16 -36
25 -55 25 -19 0 -40 -9 -55 -25z"/>
<path d="M1063 1177 c-90 -90 -103 -107 -103 -137 0 -30 13 -47 103 -137 88
-88 108 -103 135 -103 43 0 82 38 82 80 0 25 -13 45 -62 96 l-61 64 61 64 c49
51 62 71 62 96 0 42 -39 80 -82 80 -27 0 -47 -15 -135 -103z"/>
<path d="M1557 1269 c-23 -14 -197 -361 -197 -394 0 -54 70 -92 121 -65 24 13
199 360 199 395 0 55 -73 93 -123 64z"/>
<path d="M1785 1255 c-43 -42 -34 -77 37 -151 l61 -64 -61 -64 c-49 -51 -62
-71 -62 -96 0 -42 39 -80 82 -80 27 0 47 15 135 103 90 90 103 107 103 137 0
30 -13 47 -103 137 -88 88 -108 103 -135 103 -22 0 -41 -9 -57 -25z"/>
</g>
</svg>
