<?xml version="1.0" standalone="no"?>
<!DOCTYPE svg PUBLIC "-//W3C//DTD SVG 20010904//EN"
 "http://www.w3.org/TR/2001/REC-SVG-20010904/DTD/svg10.dtd">
<svg version="1.0" xmlns="http://www.w3.org/2000/svg"
 width="256.000000pt" height="256.000000pt" viewBox="0 0 256.000000 256.000000"
 preserveAspectRatio="xMidYMid meet">

<g transform="translate(0.000000,256.000000) scale(0.100000,-0.100000)"
fill="#000000" stroke="none">
<path d="M143 2300 c-66 -40 -63 -6 -63 -782 0 -680 1 -704 20 -735 38 -64 32
-63 530 -63 l450 0 0 -80 0 -80 -148 0 c-102 0 -152 -4 -160 -12 -8 -8 -12
-49 -12 -120 l0 -108 -40 0 -40 0 0 -40 0 -40 600 0 600 0 0 40 0 40 -40 0
-40 0 0 108 c0 71 -4 112 -12 120 -8 8 -58 12 -160 12 l-148 0 0 80 0 80 450
0 c498 0 492 -1 530 63 19 31 20 55 20 737 0 682 -1 706 -20 737 -40 67 36 63
-1182 63 -1076 0 -1104 -1 -1135 -20z m2245 -72 c9 -9 12 -156 12 -600 l0
-588 -1120 0 -1120 0 0 588 c0 444 3 591 12 600 17 17 2199 17 2216 0z m12
-1336 c0 -40 -5 -73 -12 -80 -17 -17 -2199 -17 -2216 0 -7 7 -12 40 -12 80 l0
68 1120 0 1120 0 0 -68z m-1000 -252 l0 -80 -120 0 -120 0 0 80 0 80 120 0
120 0 0 -80z m320 -240 l0 -80 -440 0 -440 0 0 80 0 80 440 0 440 0 0 -80z"/>
<path d="M1355 2150 c-11 -4 -31 -20 -45 -35 l-25 -27 0 -449 0 -449 33 -32
32 -33 450 0 450 0 32 33 33 32 3 446 3 446 -40 39 -39 39 -433 -1 c-239 0
-443 -4 -454 -9z m873 -82 c7 -7 12 -40 12 -80 l0 -68 -440 0 -440 0 0 68 c0
40 5 73 12 80 17 17 839 17 856 0z m12 -536 c0 -226 -3 -311 -12 -320 -17 -17
-839 -17 -856 0 -9 9 -12 94 -12 320 l0 308 440 0 440 0 0 -308z"/>
<path d="M1440 2000 l0 -40 40 0 40 0 0 40 0 40 -40 0 -40 0 0 -40z"/>
<path d="M1600 2000 l0 -40 40 0 40 0 0 40 0 40 -40 0 -40 0 0 -40z"/>
<path d="M1760 2000 l0 -40 40 0 40 0 0 40 0 40 -40 0 -40 0 0 -40z"/>
<path d="M1706 1784 c-70 -22 -149 -103 -170 -174 -9 -30 -16 -70 -16 -90 0
-150 130 -280 280 -280 150 0 280 130 280 280 0 100 -64 204 -155 249 -60 30
-152 36 -219 15z m204 -98 c59 -39 85 -89 85 -166 0 -78 -26 -127 -88 -168
-34 -23 -52 -27 -108 -27 -59 0 -73 4 -110 30 -53 38 -89 103 -89 163 0 84 60
168 137 192 47 16 131 4 173 -24z"/>
<path d="M1823 1558 l-62 -62 -26 24 -26 24 -26 -27 -27 -27 44 -45 c24 -25
51 -45 60 -45 8 0 53 38 99 84 l84 85 -17 25 c-9 14 -22 26 -29 26 -7 0 -40
-28 -74 -62z"/>
<path d="M322 1857 c-23 -23 -42 -50 -42 -58 0 -8 20 -34 44 -58 39 -39 45
-41 65 -30 31 20 34 39 10 66 l-22 23 21 23 c26 28 27 31 5 57 -24 28 -33 26
-81 -23z"/>
<path d="M547 1823 l-58 -78 28 -22 c15 -13 31 -22 35 -20 4 1 32 36 63 77
l56 75 -28 22 c-15 13 -30 23 -33 23 -3 0 -32 -35 -63 -77z"/>
<path d="M752 1878 l-22 -22 27 -28 27 -28 -24 -25 -24 -26 27 -26 27 -27 45
44 c25 24 45 51 45 59 0 17 -79 101 -95 101 -6 0 -20 -10 -33 -22z"/>
<path d="M960 1720 l0 -40 40 0 40 0 0 40 0 40 -40 0 -40 0 0 -40z"/>
<path d="M360 1560 l0 -40 80 0 80 0 0 40 0 40 -80 0 -80 0 0 -40z"/>
<path d="M600 1560 l0 -40 40 0 40 0 0 40 0 40 -40 0 -40 0 0 -40z"/>
<path d="M760 1560 l0 -40 120 0 120 0 0 40 0 40 -120 0 -120 0 0 -40z"/>
<path d="M1080 1560 l0 -40 40 0 40 0 0 40 0 40 -40 0 -40 0 0 -40z"/>
<path d="M440 1400 l0 -40 40 0 40 0 0 40 0 40 -40 0 -40 0 0 -40z"/>
<path d="M600 1400 l0 -40 80 0 80 0 0 40 0 40 -80 0 -80 0 0 -40z"/>
<path d="M840 1400 l0 -40 40 0 40 0 0 40 0 40 -40 0 -40 0 0 -40z"/>
<path d="M1000 1400 l0 -40 80 0 80 0 0 40 0 40 -80 0 -80 0 0 -40z"/>
<path d="M2200 880 l0 -40 40 0 40 0 0 40 0 40 -40 0 -40 0 0 -40z"/>
</g>
</svg>
