<?xml version="1.0" standalone="no"?>
<!DOCTYPE svg PUBLIC "-//W3C//DTD SVG 20010904//EN"
 "http://www.w3.org/TR/2001/REC-SVG-20010904/DTD/svg10.dtd">
<svg version="1.0" xmlns="http://www.w3.org/2000/svg"
 width="256.000000pt" height="256.000000pt" viewBox="0 0 256.000000 256.000000"
 preserveAspectRatio="xMidYMid meet">

<g transform="translate(0.000000,256.000000) scale(0.100000,-0.100000)"
fill="#000000" stroke="none">
<path d="M770 2460 l-94 -90 -331 -2 -330 -3 0 -895 0 -895 486 -3 487 -2 6
-25 c7 -28 -8 -93 -30 -138 -13 -25 -19 -27 -74 -27 -60 0 -60 0 -60 -30 l0
-30 455 0 455 0 0 30 0 30 -63 0 c-62 0 -64 1 -80 34 -21 45 -31 100 -23 131
l6 25 488 2 487 3 0 895 0 895 -222 3 -223 2 0 90 0 90 -622 0 -623 -1 -95
-89z m1290 -705 l0 -735 -775 0 -775 0 0 540 0 540 140 0 c155 0 192 9 228 55
20 26 22 39 22 181 l0 154 580 0 580 0 0 -735z m-1220 565 c0 -163 3 -160
-167 -160 l-128 0 141 140 c78 77 144 140 148 140 3 0 6 -54 6 -120z m-274
-59 l-48 -49 -162 0 c-88 0 -167 -1 -173 -1 -10 -1 -13 -132 -13 -621 l0 -620
1110 0 1110 0 0 620 c0 489 -3 620 -12 621 -7 0 -69 1 -138 2 l-125 2 -3 48
-3 47 190 0 191 0 0 -720 0 -720 -1210 0 -1210 0 0 720 0 720 272 0 272 0 -48
-49z m-116 -671 l0 -571 -112 3 -113 3 -2 555 c-1 305 0 561 2 568 3 8 35 12
115 12 l110 0 0 -570z m1880 0 l0 -570 -110 0 -110 0 0 570 0 570 110 0 110 0
0 -570z m160 -870 l0 -90 -1210 0 -1210 0 0 90 0 90 1210 0 1210 0 0 -90z
m-980 -205 c0 -31 7 -72 15 -92 8 -19 15 -37 15 -39 0 -2 -117 -4 -260 -4
-143 0 -260 1 -260 3 0 1 7 20 15 42 8 22 14 64 15 93 l0 52 230 0 230 0 0
-55z"/>
<path d="M1673 2352 c-81 -3 -83 -3 -83 -27 l0 -25 135 0 135 0 0 24 c0 22 -5
24 -52 28 -29 1 -90 2 -135 0z"/>
<path d="M1110 2325 l0 -25 135 0 135 0 0 25 0 25 -135 0 -135 0 0 -25z"/>
<path d="M1120 2158 c-95 -34 -157 -73 -230 -147 -157 -160 -193 -377 -97
-581 59 -126 225 -259 363 -290 78 -19 200 -14 276 10 127 39 272 159 327 269
116 230 52 494 -157 650 -104 78 -175 103 -307 108 -95 3 -119 1 -175 -19z
m130 -173 c0 -129 -1 -135 -20 -135 -30 0 -174 30 -182 38 -10 9 34 102 68
147 27 35 98 85 122 85 9 0 12 -34 12 -135z m125 110 c23 -13 53 -39 67 -57
27 -36 78 -131 78 -147 0 -10 -64 -25 -152 -36 l-58 -7 0 136 c0 97 3 136 12
136 6 0 30 -11 53 -25z m-315 -44 c-11 -17 -32 -55 -46 -85 -14 -31 -27 -56
-29 -56 -2 0 -21 10 -41 22 l-37 22 48 44 c39 34 106 79 123 82 2 0 -6 -13
-18 -29z m549 -57 l46 -41 -35 -22 c-19 -11 -37 -21 -40 -21 -4 0 -12 16 -19
35 -7 19 -28 58 -46 85 l-34 51 41 -23 c23 -13 62 -42 87 -64z m-683 -120 c35
-21 43 -30 39 -47 -3 -12 -9 -49 -13 -82 l-7 -60 -64 -3 c-35 -2 -67 1 -72 5
-16 17 44 213 66 213 4 0 26 -12 51 -26z m787 -31 c14 -32 28 -74 32 -93 3
-19 9 -43 11 -52 5 -16 -3 -18 -69 -18 l-74 0 -7 69 c-3 38 -9 76 -12 84 -3
10 9 23 38 40 24 14 46 25 49 26 4 1 18 -25 32 -56z m-613 -31 c30 -6 76 -13
103 -17 l47 -6 0 -55 0 -54 -120 0 -120 0 0 44 c0 62 11 108 24 103 6 -3 36
-9 66 -15z m443 4 c3 -8 9 -42 13 -75 l7 -61 -127 0 -126 0 0 54 0 55 48 6
c26 3 74 12 107 19 33 8 63 14 66 15 4 0 9 -5 12 -13z m-587 -276 c7 -47 12
-86 11 -86 -8 -6 -88 -44 -92 -44 -21 0 -82 200 -66 215 3 4 35 5 70 3 l65 -4
12 -84z m294 36 c0 -59 -7 -66 -63 -66 -18 0 -61 -7 -96 -15 -35 -9 -66 -14
-68 -12 -6 7 -20 137 -15 142 3 3 59 5 124 5 l118 0 0 -54z m302 -16 c-1 -35
-6 -68 -11 -73 -4 -4 -48 -1 -97 9 -49 9 -99 18 -111 20 -20 4 -23 10 -23 53
0 26 2 50 5 53 3 3 58 5 123 4 l117 -1 -3 -65z m199 25 c-3 -43 -33 -131 -54
-159 -12 -17 -15 -17 -60 5 -33 16 -46 28 -42 38 3 8 8 42 11 75 3 34 7 66 9
72 2 6 31 10 71 10 l69 -1 -4 -40z m-501 -260 c0 -88 -4 -135 -10 -135 -24 0
-68 31 -109 75 -42 45 -94 141 -85 156 6 10 112 31 187 38 15 1 17 -12 17
-134z m209 113 c29 -7 55 -17 58 -24 3 -7 -10 -41 -28 -74 -35 -66 -102 -132
-149 -149 l-30 -10 0 141 0 140 48 -6 c26 -4 71 -12 101 -18z m-465 -60 c3
-13 21 -49 41 -82 19 -32 35 -60 35 -62 0 -9 -76 43 -117 80 l-46 42 34 22
c43 27 46 27 53 0z m625 -54 c-31 -32 -118 -94 -132 -94 -3 0 9 25 27 55 18
30 39 68 46 84 l12 30 40 -20 40 -21 -33 -34z"/>
<path d="M1040 720 c0 -29 2 -30 45 -30 43 0 45 1 45 30 0 29 -2 30 -45 30
-43 0 -45 -1 -45 -30z"/>
<path d="M1230 720 c0 -29 2 -30 45 -30 43 0 45 1 45 30 0 29 -2 30 -45 30
-43 0 -45 -1 -45 -30z"/>
<path d="M1410 720 c0 -29 2 -30 44 -30 39 0 44 3 48 25 7 32 3 35 -49 35 -41
0 -43 -1 -43 -30z"/>
<path d="M2083 543 c-22 -15 -22 -16 -6 -44 17 -28 17 -29 -15 -60 -34 -34
-50 -77 -44 -119 2 -15 44 -81 93 -148 70 -94 99 -125 132 -141 50 -24 122
-27 170 -7 44 18 94 77 107 127 19 68 0 117 -95 249 -109 152 -153 175 -240
129 l-39 -21 -21 25 c-19 23 -22 24 -42 10z m223 -85 c32 -35 74 -92 74 -102
0 -8 -80 -60 -84 -55 -36 45 -106 144 -106 150 0 13 43 39 65 39 12 0 35 -15
51 -32z m-150 -65 c11 -16 36 -51 57 -79 l36 -51 -43 -31 -44 -32 -46 68 c-25
37 -46 72 -46 79 0 13 48 73 59 73 4 0 16 -12 27 -27z m293 -126 c25 -52 26
-78 4 -124 -44 -93 -181 -97 -240 -7 -12 19 -7 25 94 97 60 42 111 77 115 77
3 0 16 -19 27 -43z"/>
<path d="M37 293 c-2 -5 -4 -65 -5 -135 l0 -128 858 0 857 0 133 65 c73 36
131 68 128 70 -2 2 -64 34 -136 70 l-133 65 -849 0 c-467 0 -851 -3 -853 -7z
m268 -130 c0 -40 -3 -73 -7 -73 -5 0 -53 0 -108 0 l-100 0 0 68 c0 38 3 72 7
76 4 4 52 5 107 4 l101 -3 0 -72z m1395 -8 l0 -75 -667 2 -668 3 -3 73 -3 72
671 0 670 0 0 -75z m178 10 c2 -2 -23 -18 -57 -34 l-61 -31 0 60 0 60 57 -25
c31 -14 59 -27 61 -30z"/>
</g>
</svg>
